<svg width="188" height="46" viewBox="0 0 188 46" fill="none" xmlns="http://www.w3.org/2000/svg">
<path d="M36.3218 20.1164V31.2508H41.846V34.0815H33.2571V20.1164H36.3218ZM49.6906 24.6456H52.6041V34.0815H49.8609L49.6717 33.0247C49.0853 33.7984 47.9123 34.3269 46.7772 34.3269C44.6206 34.3269 43.2963 32.8926 43.2963 30.5714V24.6456H46.2097V29.5145C46.2097 31.062 46.7394 31.7414 47.9312 31.7414C49.1799 31.7414 49.6906 31.0998 49.6906 29.5523V24.6456ZM57.1929 34.0815H53.8822L57.0605 29.5145L53.8822 24.6456H57.2497L58.9901 27.5141L60.6171 24.6456H63.871L60.7495 29.4579L63.7575 34.0815H60.409L58.782 31.364L57.1929 34.0815ZM71.4356 24.6456H74.349V34.0815H71.6059L71.4167 33.0247C70.8302 33.7984 69.6573 34.3269 68.5222 34.3269C66.3655 34.3269 65.0413 32.8926 65.0413 30.5714V24.6456H67.9547V29.5145C67.9547 31.062 68.4844 31.7414 69.6762 31.7414C70.9248 31.7414 71.4356 31.0998 71.4356 29.5523V24.6456ZM83.0431 24.6456V27.382H82.1162C80.4513 27.382 79.4487 28.118 79.4487 29.9863V34.0815H76.5353V24.6645H79.2784L79.4298 26.061C79.827 25.1363 80.6594 24.5135 81.927 24.5135C82.2675 24.5135 82.6459 24.5513 83.0431 24.6456ZM84.0367 38.6108V36.1763H85.6448C86.6285 36.1763 87.0447 35.8743 87.4231 34.8553L87.5933 34.4023L83.7908 24.6456H86.9123L88.9744 30.7035L91.2635 24.6456H94.2904L89.4852 36.1385C88.6906 38.0635 87.6312 38.875 85.9664 38.875C85.2664 38.875 84.6043 38.7806 84.0367 38.6108Z" fill="#026C86"/>
<path d="M107.156 22.7585C104.621 22.7585 103.316 24.5324 103.316 27.2311C103.316 30.043 104.905 31.4395 107.137 31.4395C109.445 31.4395 110.467 30.194 110.599 28.7408H106.892V26.061H113.475V34.0815H110.845L110.675 32.8171C109.918 33.7041 108.405 34.2891 106.74 34.2891C102.824 34.2891 100.081 31.4206 100.081 27.1367C100.081 22.9283 102.9 19.89 107.232 19.89C110.581 19.89 113.153 21.8526 113.475 24.8721H110.259C109.9 23.4001 108.613 22.7585 107.156 22.7585ZM118.503 34.3269C116.498 34.3269 115.249 33.1568 115.249 31.3074C115.249 29.5712 116.479 28.4955 118.749 28.3256L121.397 28.1181V27.9671C121.397 27.0424 120.83 26.5517 119.789 26.5517C118.559 26.5517 117.898 27.0235 117.898 27.8727H115.476C115.476 25.7402 117.236 24.3437 119.94 24.3437C122.684 24.3437 124.235 25.8723 124.235 28.571V34.0815H121.662L121.473 32.836C121.17 33.7041 119.922 34.3269 118.503 34.3269ZM119.524 32.1755C120.64 32.1755 121.416 31.6282 121.416 30.5525V30.043L119.94 30.1751C118.673 30.2883 118.219 30.5714 118.219 31.1753C118.219 31.8547 118.635 32.1755 119.524 32.1755ZM130.055 34.0815H127.141V27.0612H125.344V24.6456H127.141V21.7205H130.055V24.6456H131.852V27.0612H130.055V34.0815ZM137.458 34.3269C134.601 34.3269 132.558 32.251 132.558 29.3447C132.558 26.4007 134.544 24.3437 137.401 24.3437C140.371 24.3437 142.225 26.2875 142.225 29.3636V30.0996L135.358 30.1373C135.528 31.3829 136.228 31.9679 137.514 31.9679C138.612 31.9679 139.387 31.5716 139.595 30.8922H142.263C141.922 32.987 140.049 34.3269 137.458 34.3269ZM137.42 26.7027C136.266 26.7027 135.623 27.2122 135.395 28.3445H139.33C139.33 27.3443 138.593 26.7027 137.42 26.7027ZM145.608 34.0815L142.562 24.6456H145.627L146.497 27.7218C146.724 28.5332 146.932 29.458 147.083 30.4015C147.254 29.4013 147.348 29.0428 147.764 27.7218L148.729 24.6456H151.718L152.608 27.7218C152.702 28.0426 153.156 29.7976 153.251 30.4015C153.364 29.7222 153.818 28.0614 153.913 27.7218L154.821 24.6456H157.905L154.594 34.0815H151.889L150.981 31.0809C150.508 29.5334 150.262 28.42 150.205 28.0237C150.129 28.42 149.959 29.156 149.354 31.1375L148.446 34.0815H145.608ZM161.568 34.3269C159.562 34.3269 158.314 33.1568 158.314 31.3074C158.314 29.5712 159.543 28.4955 161.814 28.3256L164.462 28.1181V27.9671C164.462 27.0424 163.895 26.5517 162.854 26.5517C161.624 26.5517 160.962 27.0235 160.962 27.8727H158.541C158.541 25.7402 160.3 24.3437 163.005 24.3437C165.749 24.3437 167.3 25.8723 167.3 28.571V34.0815H164.727L164.538 32.836C164.235 33.7041 162.987 34.3269 161.568 34.3269ZM162.589 32.1755C163.705 32.1755 164.481 31.6282 164.481 30.5525V30.043L163.005 30.1751C161.738 30.2883 161.284 30.5714 161.284 31.1753C161.284 31.8547 161.7 32.1755 162.589 32.1755ZM168.356 38.6108V36.1763H169.964C170.948 36.1763 171.364 35.8744 171.742 34.8553L171.912 34.4024L168.11 24.6456H171.231L173.293 30.7035L175.583 24.6456H178.609L173.804 36.1386C173.01 38.0635 171.95 38.875 170.285 38.875C169.585 38.875 168.923 38.7806 168.356 38.6108ZM178.852 31.0998H181.614C181.652 31.7603 182.144 32.1566 183.033 32.1566C183.941 32.1566 184.357 31.8358 184.357 31.3451C184.357 31.0621 184.206 30.7601 183.506 30.6091L181.765 30.2317C180.025 29.8543 179.173 29.0994 179.173 27.4387C179.173 25.476 180.857 24.3437 183.127 24.3437C185.322 24.3437 186.854 25.627 186.854 27.533H184.092C184.092 26.8914 183.695 26.4573 182.995 26.4573C182.333 26.4573 181.917 26.797 181.917 27.3066C181.917 27.7406 182.276 27.986 182.938 28.1369L184.698 28.5144C186.249 28.8541 187.1 29.5712 187.1 31.0809C187.1 33.1002 185.379 34.3269 182.919 34.3269C180.422 34.3269 178.852 33.0059 178.852 31.0998Z" fill="#1CA8CB"/>
<path d="M9.0702 18.4551L15.5333 19.0058L21.2844 12.8083L11.6965 14.9922C11.6028 15.0151 11.5168 15.0626 11.4476 15.1298L8.74438 17.4834C8.6599 17.5547 8.59878 17.6495 8.56895 17.7558C8.53911 17.862 8.54192 17.9748 8.57702 18.0794C8.61211 18.184 8.67786 18.2758 8.76578 18.3428C8.85372 18.4097 8.95976 18.4488 9.0702 18.4551Z" fill="#1CA8CB"/>
<path d="M38.0409 7.05634L31.0562 6.93944C30.4687 6.92893 29.8858 7.04461 29.347 7.27866C28.8082 7.5127 28.3262 7.85962 27.9337 8.29587L10.6189 26.9666L5.71817 27.7159C5.438 27.7616 5.17928 27.8939 4.97854 28.0941C4.77779 28.2943 4.64517 28.5524 4.59939 28.8318C4.55362 29.1114 4.59702 29.3981 4.72344 29.6517C4.84986 29.9052 5.05292 30.1128 5.30397 30.245L10.7794 33.0524C10.8698 33.0997 10.9708 33.1231 11.0728 33.1202C11.1747 33.1174 11.2743 33.0885 11.3619 33.0364C12.6087 32.2495 17.1081 28.5925 22.4035 24.1606L26.0217 36.1317C26.0528 36.2354 26.1117 36.3287 26.1921 36.4014C26.2725 36.4742 26.3713 36.5238 26.4777 36.5446C26.5842 36.5655 26.6944 36.557 26.7964 36.52C26.8984 36.4831 26.9883 36.419 27.0566 36.3347L29.2757 33.6029C29.397 33.4524 29.4613 33.264 29.4573 33.0709L29.174 18.4778C32.9584 15.282 36.5661 12.1981 39.1054 10.0202C39.3701 9.80038 39.5607 9.50468 39.6514 9.17317C39.7421 8.84167 39.7284 8.49038 39.6121 8.16691C39.496 7.84342 39.283 7.56339 39.0018 7.36474C38.7207 7.16609 38.3853 7.05843 38.0409 7.05634Z" fill="#1CA8CB"/>
</svg>
