<svg width="36" height="31" viewBox="0 0 36 31" fill="none" xmlns="http://www.w3.org/2000/svg">
<path d="M34.0408 1.05634L27.0562 0.939439C26.4687 0.928929 25.8857 1.04461 25.3469 1.27866C24.8081 1.5127 24.3262 1.85962 23.9336 2.29587L6.61884 20.9666L1.71811 21.7159C1.43794 21.7616 1.17922 21.8939 0.978476 22.0941C0.777729 22.2943 0.645113 22.5524 0.59933 22.8318C0.55356 23.1114 0.596954 23.3981 0.723375 23.6517C0.849796 23.9052 1.05286 24.1128 1.30391 24.245L6.77936 27.0524C6.86971 27.0997 6.97071 27.1231 7.07269 27.1202C7.17467 27.1174 7.27422 27.0885 7.36181 27.0364C8.60865 26.2495 13.108 22.5925 18.4035 18.1606L22.0217 30.1317C22.0528 30.2354 22.1117 30.3287 22.1921 30.4014C22.2725 30.4742 22.3712 30.5238 22.4776 30.5446C22.5841 30.5655 22.6943 30.557 22.7964 30.52C22.8983 30.4831 22.9883 30.419 23.0565 30.3347L25.2756 27.6029C25.3969 27.4524 25.4613 27.264 25.4572 27.0709L25.1739 12.4778C28.9583 9.28201 32.566 6.19812 35.1053 4.0202C35.37 3.80038 35.5606 3.50468 35.6513 3.17317C35.742 2.84167 35.7283 2.49038 35.6121 2.16691C35.496 1.84342 35.2829 1.56339 35.0017 1.36474C34.7207 1.16609 34.3852 1.05843 34.0408 1.05634Z" fill="#1CA8CB"/>
</svg>
